<?xml version="1.0" encoding="UTF-8" standalone="no"?>
<!DOCTYPE svg PUBLIC "-//W3C//DTD SVG 1.1//EN" "http://www.w3.org/Graphics/SVG/1.1/DTD/svg11.dtd">
<svg width="100%" height="100%" viewBox="0 0 400 54" version="1.1" xmlns="http://www.w3.org/2000/svg" xmlns:xlink="http://www.w3.org/1999/xlink" xml:space="preserve" xmlns:serif="http://www.serif.com/" style="fill-rule:evenodd;clip-rule:evenodd;stroke-linejoin:round;stroke-miterlimit:2;">
    <g id="heise-marketing" serif:id="heise marketing" transform="matrix(1.71234,0,0,1.71234,-327.067,-636.242)">
        <g id="marketing" transform="matrix(1,0,0,1,-0.645292,0)">
            <g transform="matrix(2.64683,0,0,2.64683,-505.713,674.732)">
                <path d="M348.584,-102.807C350.504,-102.807 351.728,-103.719 351.728,-104.883C351.728,-105.903 350.984,-106.335 349.568,-106.335L348.524,-106.335C347.804,-106.335 347.564,-106.539 347.564,-106.875C347.564,-107.139 347.672,-107.283 347.852,-107.439C348.116,-107.331 348.404,-107.283 348.656,-107.283C349.904,-107.283 350.888,-107.979 350.888,-109.287C350.888,-109.695 350.744,-110.055 350.552,-110.283L351.632,-110.283L351.632,-111.303L349.52,-111.303C349.28,-111.387 348.98,-111.447 348.656,-111.447C347.42,-111.447 346.328,-110.691 346.328,-109.335C346.328,-108.639 346.7,-108.075 347.096,-107.775L347.096,-107.727C346.76,-107.487 346.448,-107.091 346.448,-106.635C346.448,-106.155 346.676,-105.843 346.976,-105.651L346.976,-105.603C346.436,-105.267 346.136,-104.835 346.136,-104.343C346.136,-103.311 347.18,-102.807 348.584,-102.807ZM348.656,-108.147C348.08,-108.147 347.624,-108.579 347.624,-109.335C347.624,-110.079 348.08,-110.499 348.656,-110.499C349.232,-110.499 349.676,-110.067 349.676,-109.335C349.676,-108.579 349.22,-108.147 348.656,-108.147ZM348.8,-103.707C347.864,-103.707 347.288,-104.019 347.288,-104.547C347.288,-104.823 347.432,-105.087 347.744,-105.327C347.972,-105.267 348.224,-105.243 348.548,-105.243L349.352,-105.243C350.024,-105.243 350.396,-105.111 350.396,-104.655C350.396,-104.151 349.748,-103.707 348.8,-103.707Z" style="fill:rgb(138,153,174);fill-rule:nonzero;"/>
            </g>
            <g transform="matrix(2.64683,0,0,2.64683,-505.889,674.732)">
                <path d="M340.232,-105.411L341.612,-105.411L341.612,-109.527C342.104,-110.007 342.44,-110.259 342.956,-110.259C343.604,-110.259 343.88,-109.899 343.88,-108.927L343.88,-105.411L345.26,-105.411L345.26,-109.107C345.26,-110.595 344.708,-111.447 343.448,-111.447C342.644,-111.447 342.044,-111.027 341.516,-110.511L341.468,-110.511L341.372,-111.303L340.232,-111.303L340.232,-105.411Z" style="fill:rgb(138,153,174);fill-rule:nonzero;"/>
            </g>
            <g transform="matrix(2.64683,0,0,2.64683,-505.423,674.732)">
                <path d="M337.508,-105.411L338.888,-105.411L338.888,-111.303L337.508,-111.303L337.508,-105.411ZM338.204,-112.335C338.696,-112.335 339.056,-112.659 339.056,-113.115C339.056,-113.583 338.696,-113.907 338.204,-113.907C337.712,-113.907 337.352,-113.583 337.352,-113.115C337.352,-112.659 337.712,-112.335 338.204,-112.335Z" style="fill:rgb(138,153,174);fill-rule:nonzero;"/>
            </g>
            <g transform="matrix(2.64683,0,0,2.64683,-506.103,674.732)">
                <path d="M335.672,-105.267C336.14,-105.267 336.548,-105.375 336.872,-105.483L336.632,-106.503C336.464,-106.431 336.224,-106.371 336.02,-106.371C335.456,-106.371 335.192,-106.707 335.192,-107.403L335.192,-110.211L336.692,-110.211L336.692,-111.303L335.192,-111.303L335.192,-112.911L334.04,-112.911L333.872,-111.303L332.96,-111.243L332.96,-110.211L333.8,-110.211L333.8,-107.403C333.8,-106.131 334.304,-105.267 335.672,-105.267Z" style="fill:rgb(138,153,174);fill-rule:nonzero;"/>
            </g>
            <g transform="matrix(2.64683,0,0,2.64683,-506.608,674.732)">
                <path d="M330.572,-105.267C331.316,-105.267 332.024,-105.531 332.588,-105.903L332.12,-106.767C331.688,-106.491 331.256,-106.335 330.752,-106.335C329.804,-106.335 329.132,-106.935 329.012,-107.979L332.756,-107.979C332.792,-108.123 332.816,-108.387 332.816,-108.651C332.816,-110.295 331.976,-111.447 330.38,-111.447C329,-111.447 327.668,-110.271 327.668,-108.351C327.668,-106.407 328.94,-105.267 330.572,-105.267ZM329,-108.915C329.12,-109.863 329.72,-110.379 330.416,-110.379C331.22,-110.379 331.616,-109.827 331.616,-108.915L329,-108.915Z" style="fill:rgb(138,153,174);fill-rule:nonzero;"/>
            </g>
            <g transform="matrix(2.64683,0,0,2.64683,-506.602,674.732)">
                <path d="M322.484,-105.411L323.84,-105.411L323.84,-106.911L324.764,-107.967L326.276,-105.411L327.776,-105.411L325.556,-108.903L327.572,-111.303L326.06,-111.303L323.876,-108.591L323.84,-108.591L323.84,-113.883L322.484,-113.883L322.484,-105.411Z" style="fill:rgb(138,153,174);fill-rule:nonzero;"/>
            </g>
            <g transform="matrix(2.64683,0,0,2.64683,-506.975,674.732)">
                <path d="M318.428,-105.411L319.808,-105.411L319.808,-109.011C320.168,-109.899 320.732,-110.223 321.2,-110.223C321.452,-110.223 321.608,-110.187 321.812,-110.127L322.052,-111.327C321.872,-111.411 321.68,-111.447 321.38,-111.447C320.756,-111.447 320.132,-111.027 319.712,-110.259L319.664,-110.259L319.568,-111.303L318.428,-111.303L318.428,-105.411Z" style="fill:rgb(138,153,174);fill-rule:nonzero;"/>
            </g>
            <g transform="matrix(2.64683,0,0,2.64683,-506.733,674.732)">
                <path d="M314.084,-105.267C314.78,-105.267 315.38,-105.615 315.908,-106.059L315.956,-106.059L316.052,-105.411L317.192,-105.411L317.192,-108.903C317.192,-110.547 316.46,-111.447 314.996,-111.447C314.06,-111.447 313.22,-111.087 312.572,-110.679L313.076,-109.755C313.604,-110.067 314.156,-110.331 314.732,-110.331C315.536,-110.331 315.788,-109.803 315.812,-109.179C313.388,-108.915 312.344,-108.255 312.344,-106.995C312.344,-105.963 313.052,-105.267 314.084,-105.267ZM314.528,-106.347C314.036,-106.347 313.676,-106.575 313.676,-107.103C313.676,-107.691 314.204,-108.111 315.812,-108.315L315.812,-106.995C315.368,-106.587 315.008,-106.347 314.528,-106.347Z" style="fill:rgb(138,153,174);fill-rule:nonzero;"/>
            </g>
            <g transform="matrix(2.64683,0,0,2.64683,-506.543,674.732)">
                <path d="M302.96,-105.411L304.34,-105.411L304.34,-109.527C304.796,-110.019 305.216,-110.259 305.576,-110.259C306.2,-110.259 306.488,-109.899 306.488,-108.927L306.488,-105.411L307.868,-105.411L307.868,-109.527C308.324,-110.019 308.732,-110.259 309.104,-110.259C309.716,-110.259 310.004,-109.899 310.004,-108.927L310.004,-105.411L311.396,-105.411L311.396,-109.107C311.396,-110.595 310.82,-111.447 309.572,-111.447C308.828,-111.447 308.24,-110.991 307.676,-110.391C307.4,-111.051 306.908,-111.447 306.044,-111.447C305.312,-111.447 304.736,-111.027 304.244,-110.499L304.196,-110.499L304.1,-111.303L302.96,-111.303L302.96,-105.411Z" style="fill:rgb(138,153,174);fill-rule:nonzero;"/>
            </g>
        </g>
        <g id="heise">
            <g transform="matrix(0.270952,0,0,0.270952,191.007,371.563)">
                <path d="M298.03,60.46C298.03,41.76 311.01,30.23 324.55,30.23C340.11,30.23 348.31,41.48 348.31,57.55C348.31,60.13 348.03,62.7 347.73,64.11L311.2,64.11C312.32,74.33 318.89,80.14 328.16,80.14C333.08,80.14 337.3,78.59 341.52,75.97L346.11,84.36C340.63,88.06 333.69,90.59 326.38,90.59C310.49,90.59 298.03,79.44 298.03,60.46ZM336.64,54.93C336.64,46.07 332.7,40.68 324.83,40.68C318.13,40.68 312.22,45.69 311.05,54.93L336.64,54.93Z" style="fill:rgb(20,49,91);fill-rule:nonzero;"/>
            </g>
            <g transform="matrix(0.270952,0,0,0.270952,191.007,371.563)">
                <path d="M248.07,82.57L254.35,73.99C259.46,77.97 264.4,80.41 270.24,80.41C276.52,80.41 279.47,77.46 279.47,73.52C279.47,68.69 273.24,66.54 267.1,64.19C259.56,61.35 250.93,57.02 250.93,47.41C250.93,37.8 258.99,30.21 271.88,30.21C279.89,30.21 286.31,33.47 291,37.1L284.81,45.39C280.78,42.44 276.73,40.38 272.2,40.38C266.41,40.38 263.67,43.14 263.67,46.75C263.67,51.3 269.48,53.03 275.71,55.33C283.49,58.23 292.21,61.98 292.21,72.72C292.21,82.61 284.39,90.57 269.86,90.57C261.99,90.57 253.69,87.2 248.07,82.56L248.07,82.57Z" style="fill:rgb(20,49,91);fill-rule:nonzero;"/>
            </g>
            <g transform="matrix(0.270952,0,0,0.270952,191.007,371.563)">
                <path d="M227.41,13.92C227.41,9.37 230.97,6.28 235.75,6.28C240.53,6.28 244.09,9.37 244.09,13.92C244.09,18.47 240.53,21.56 235.75,21.56C230.97,21.56 227.41,18.37 227.41,13.92ZM228.96,31.63L242.46,31.63L242.46,89.18L228.96,89.18L228.96,31.63Z" style="fill:rgb(20,49,91);fill-rule:nonzero;"/>
            </g>
            <g transform="matrix(0.270952,0,0,0.270952,191.007,371.563)">
                <path d="M170.68,60.46C170.68,41.76 183.66,30.23 197.2,30.23C212.76,30.23 220.96,41.48 220.96,57.55C220.96,60.13 220.68,62.7 220.37,64.11L183.84,64.11C184.96,74.33 191.53,80.14 200.8,80.14C205.72,80.14 209.94,78.59 214.16,75.97L218.75,84.36C213.27,88.06 206.33,90.59 199.02,90.59C183.13,90.59 170.67,79.44 170.67,60.46L170.68,60.46ZM209.29,54.93C209.29,46.07 205.35,40.68 197.48,40.68C190.78,40.68 184.87,45.69 183.7,54.93L209.29,54.93Z" style="fill:rgb(20,49,91);fill-rule:nonzero;"/>
            </g>
            <g transform="matrix(0.270952,0,0,0.270952,191.007,371.563)">
                <path d="M113.55,6.42L127.05,6.42L127.05,27.84L126.49,38.95C131.32,34.4 137.03,30.23 144.91,30.23C157.23,30.23 162.62,38.57 162.62,53.1L162.62,89.18L149.12,89.18L149.12,54.83C149.12,45.36 146.4,41.8 140.17,41.8C135.11,41.8 131.78,44.28 127.05,48.97L127.05,89.18L113.55,89.18L113.55,6.42Z" style="fill:rgb(20,49,91);fill-rule:nonzero;"/>
            </g>
            <g transform="matrix(0.270952,0,0,0.270952,191.007,371.563)">
                <path d="M72.19,44.07C65.41,40.91 57.35,43.84 54.18,50.62L42.87,74.87C39.71,81.65 42.64,89.71 49.42,92.88C56.2,96.04 64.26,93.11 67.42,86.33L78.73,62.08C81.89,55.3 78.96,47.24 72.18,44.07" style="fill:rgb(20,49,91);fill-rule:nonzero;"/>
            </g>
            <g transform="matrix(0.270952,0,0,0.270952,191.007,371.563)">
                <path d="M50.54,1.27C43.76,-1.89 35.7,1.04 32.53,7.82L1.27,74.88C-1.89,81.66 1.04,89.72 7.82,92.89C14.6,96.05 22.66,93.12 25.83,86.34L57.1,19.28C60.26,12.5 57.33,4.44 50.55,1.27" style="fill:rgb(20,49,91);fill-rule:nonzero;"/>
            </g>
        </g>
    </g>
</svg>
